<mxfile host="Electron" agent="Mozilla/5.0 (Windows NT 10.0; Win64; x64) AppleWebKit/537.36 (KHTML, like Gecko) draw.io/26.0.9 Chrome/128.0.6613.186 Electron/32.2.5 Safari/537.36" version="26.0.9">
  <diagram name="Diagrama de Classes" id="navB35VzRw9iRm46CVdp">
    <mxGraphModel dx="938" dy="640" grid="1" gridSize="10" guides="1" tooltips="1" connect="1" arrows="1" fold="1" page="1" pageScale="1" pageWidth="827" pageHeight="1169" math="0" shadow="0">
      <root>
        <mxCell id="0" />
        <mxCell id="1" parent="0" />
        <mxCell id="DeJTB9jmPwMNKGj4REmm-1" value="Paciente" style="swimlane;fontStyle=1;align=center;verticalAlign=top;childLayout=stackLayout;horizontal=1;startSize=26;fillColor=#dae8fc;strokeColor=#6c8ebf;" vertex="1" parent="1">
          <mxGeometry x="100" y="100" width="160" height="120" as="geometry" />
        </mxCell>
        <mxCell id="DeJTB9jmPwMNKGj4REmm-2" value="- id: String&lt;br&gt;- nome: String&lt;br&gt;- dataNascimento: Date&lt;br&gt;- cpf: String" style="text;html=1;align=left;verticalAlign=middle;spacingLeft=4;spacingRight=4;overflow=hidden;rotatable=0;points=[[0,0.5],[1,0.5]];portConstraint=eastwest;" vertex="1" parent="DeJTB9jmPwMNKGj4REmm-1">
          <mxGeometry y="26" width="160" height="94" as="geometry" />
        </mxCell>
        <mxCell id="DeJTB9jmPwMNKGj4REmm-3" value="Medico" style="swimlane;fontStyle=1;align=center;verticalAlign=top;childLayout=stackLayout;horizontal=1;startSize=26;fillColor=#dae8fc;strokeColor=#6c8ebf;" vertex="1" parent="1">
          <mxGeometry x="350" y="100" width="160" height="100" as="geometry" />
        </mxCell>
        <mxCell id="DeJTB9jmPwMNKGj4REmm-4" value="- id: String&lt;br&gt;- nome: String&lt;br&gt;- crm: String&lt;br&gt;- especialidade: String" style="text;html=1;align=left;verticalAlign=middle;spacingLeft=4;spacingRight=4;overflow=hidden;rotatable=0;points=[[0,0.5],[1,0.5]];portConstraint=eastwest;" vertex="1" parent="DeJTB9jmPwMNKGj4REmm-3">
          <mxGeometry y="26" width="160" height="74" as="geometry" />
        </mxCell>
        <mxCell id="DeJTB9jmPwMNKGj4REmm-5" value="Consulta" style="swimlane;fontStyle=1;align=center;verticalAlign=top;childLayout=stackLayout;horizontal=1;startSize=26;fillColor=#dae8fc;strokeColor=#6c8ebf;" vertex="1" parent="1">
          <mxGeometry x="220" y="300" width="180" height="140" as="geometry" />
        </mxCell>
        <mxCell id="DeJTB9jmPwMNKGj4REmm-6" value="- id: String&lt;br&gt;- dataHora: DateTime&lt;br&gt;- status: String (agendada, desmarcada, reagendada)&lt;br&gt;- observacoes: String" style="text;html=1;align=left;verticalAlign=middle;spacingLeft=4;spacingRight=4;overflow=hidden;rotatable=0;points=[[0,0.5],[1,0.5]];portConstraint=eastwest;" vertex="1" parent="DeJTB9jmPwMNKGj4REmm-5">
          <mxGeometry y="26" width="180" height="114" as="geometry" />
        </mxCell>
        <mxCell id="DeJTB9jmPwMNKGj4REmm-7" value="AgendaMedica" style="swimlane;fontStyle=1;align=center;verticalAlign=top;childLayout=stackLayout;horizontal=1;startSize=26;fillColor=#dae8fc;strokeColor=#6c8ebf;" vertex="1" parent="1">
          <mxGeometry x="580" y="200" width="180" height="100" as="geometry" />
        </mxCell>
        <mxCell id="DeJTB9jmPwMNKGj4REmm-8" value="- id: String&lt;br&gt;- medico: Medico&lt;br&gt;- consultas: List&lt;Consulta&gt;" style="text;html=1;align=left;verticalAlign=middle;spacingLeft=4;spacingRight=4;overflow=hidden;rotatable=0;points=[[0,0.5],[1,0.5]];portConstraint=eastwest;" vertex="1" parent="DeJTB9jmPwMNKGj4REmm-7">
          <mxGeometry y="26" width="180" height="74" as="geometry" />
        </mxCell>
        <mxCell id="DeJTB9jmPwMNKGj4REmm-9" value="" style="endArrow=none;html=1;edgeStyle=entityRelationEdgeStyle;startFill=0;endFill=0;endSize=6;startSize=6;" edge="1" parent="1" source="DeJTB9jmPwMNKGj4REmm-1" target="DeJTB9jmPwMNKGj4REmm-5">
          <mxGeometry width="100" height="100" relative="1" as="geometry">
            <mxPoint x="180" y="220" as="sourcePoint" />
            <mxPoint x="180" y="300" as="targetPoint" />
          </mxGeometry>
        </mxCell>
        <mxCell id="DeJTB9jmPwMNKGj4REmm-10" value="1" style="edgeLabel;html=1;align=center;verticalAlign=middle;resizable=0;points=[];" relativenormal="0.25" parent="DeJTB9jmPwMNKGj4REmm-9">
          <mxPoint x="-16" y="-10" as="offset" />
        </mxCell>
        <mxCell id="DeJTB9jmPwMNKGj4REmm-11" value="N" style="edgeLabel;html=1;align=center;verticalAlign=middle;resizable=0;points=[];" relativenormal="-0.25" parent="DeJTB9jmPwMNKGj4REmm-9">
          <mxPoint x="-16" y="10" as="offset" />
        </mxCell>
        <mxCell id="DeJTB9jmPwMNKGj4REmm-12" value="" style="endArrow=none;html=1;edgeStyle=entityRelationEdgeStyle;startFill=0;endFill=0;endSize=6;startSize=6;" edge="1" parent="1" source="DeJTB9jmPwMNKGj4REmm-3" target="DeJTB9jmPwMNKGj4REmm-5">
          <mxGeometry width="100" height="100" relative="1" as="geometry">
            <mxPoint x="430" y="200" as="sourcePoint" />
            <mxPoint x="310" y="300" as="targetPoint" />
          </mxGeometry>
        </mxCell>
        <mxCell id="DeJTB9jmPwMNKGj4REmm-13" value="1" style="edgeLabel;html=1;align=center;verticalAlign=middle;resizable=0;points=[];" relativenormal="0.25" parent="DeJTB9jmPwMNKGj4REmm-12">
          <mxPoint x="16" y="-10" as="offset" />
        </mxCell>
        <mxCell id="DeJTB9jmPwMNKGj4REmm-14" value="N" style="edgeLabel;html=1;align=center;verticalAlign=middle;resizable=0;points=[];" relativenormal="-0.25" parent="DeJTB9jmPwMNKGj4REmm-12">
          <mxPoint x="16" y="10" as="offset" />
        </mxCell>
        <mxCell id="DeJTB9jmPwMNKGj4REmm-15" value="" style="endArrow=none;html=1;edgeStyle=entityRelationEdgeStyle;startFill=0;endFill=0;endSize=6;startSize=6;" edge="1" parent="1" source="DeJTB9jmPwMNKGj4REmm-3" target="DeJTB9jmPwMNKGj4REmm-8">
          <mxGeometry width="100" height="100" relative="1" as="geometry">
            <mxPoint x="500" y="200" as="sourcePoint" />
            <mxPoint x="580" y="230" as="targetPoint" />
          </mxGeometry>
        </mxCell>
        <mxCell id="DeJTB9jmPwMNKGj4REmm-16" value="1" style="edgeLabel;html=1;align=center;verticalAlign=middle;resizable=0;points=[];" relativenormal="0.25" parent="DeJTB9jmPwMNKGj4REmm-15">
          <mxPoint x="-16" y="-10" as="offset" />
        </mxCell>
        <mxCell id="DeJTB9jmPwMNKGj4REmm-17" value="1" style="edgeLabel;html=1;align=center;verticalAlign=middle;resizable=0;points=[];" relativenormal="-0.25" parent="DeJTB9jmPwMNKGj4REmm-15">
          <mxPoint x="-16" y="10" as="offset" />
        </mxCell>
        <mxCell id="DeJTB9jmPwMNKGj4REmm-18" value="" style="endArrow=none;html=1;edgeStyle=entityRelationEdgeStyle;startFill=0;endFill=0;endSize=6;startSize=6;" edge="1" parent="1" source="DeJTB9jmPwMNKGj4REmm-5" target="DeJTB9jmPwMNKGj4REmm-8">
          <mxGeometry width="100" height="100" relative="1" as="geometry">
            <mxPoint x="400" y="370" as="sourcePoint" />
            <mxPoint x="580" y="270" as="targetPoint" />
          </mxGeometry>
        </mxCell>
        <mxCell id="DeJTB9jmPwMNKGj4REmm-19" value="N" style="edgeLabel;html=1;align=center;verticalAlign=middle;resizable=0;points=[];" relativenormal="0.25" parent="DeJTB9jmPwMNKGj4REmm-18">
          <mxPoint x="16" y="10" as="offset" />
        </mxCell>
        <mxCell id="DeJTB9jmPwMNKGj4REmm-20" value="1" style="edgeLabel;html=1;align=center;verticalAlign=middle;resizable=0;points=[];" relativenormal="-0.25" parent="DeJTB9jmPwMNKGj4REmm-18">
          <mxPoint x="-16" y="10" as="offset" />
        </mxCell>
        <mxCell id="DeJTB9jmPwMNKGj4REmm-21" value="BaseDados" style="swimlane;fontStyle=1;align=center;verticalAlign=top;childLayout=stackLayout;horizontal=1;startSize=26;fillColor=#dae8fc;strokeColor=#6c8ebf;" vertex="1" parent="1">
          <mxGeometry x="700" y="400" width="160" height="70" as="geometry" />
        </mxCell>
        <mxCell id="DeJTB9jmPwMNKGj4REmm-22" value="- dadosMedicos: List&lt;Medico&gt;&lt;br&gt;- dadosPacientes: List&lt;Paciente&gt;" style="text;html=1;align=left;verticalAlign=middle;spacingLeft=4;spacingRight=4;overflow=hidden;rotatable=0;points=[[0,0.5],[1,0.5]];portConstraint=eastwest;" vertex="1" parent="DeJTB9jmPwMNKGj4REmm-21">
          <mxGeometry y="26" width="160" height="44" as="geometry" />
        </mxCell>
        <mxCell id="DeJTB9jmPwMNKGj4REmm-23" value="" style="endArrow=none;html=1;edgeStyle=entityRelationEdgeStyle;startFill=0;endFill=0;endSize=6;startSize=6;" edge="1" parent="1" source="DeJTB9jmPwMNKGj4REmm-8" target="DeJTB9jmPwMNKGj4REmm-21">
          <mxGeometry width="100" height="100" relative="1" as="geometry">
            <mxPoint x="750" y="300" as="sourcePoint" />
            <mxPoint x="750" y="400" as="targetPoint" />
          </mxGeometry>
        </mxCell>
        <mxCell id="DeJTB9jmPwMNKGj4REmm-24" value="1" style="edgeLabel;html=1;align=center;verticalAlign=middle;resizable=0;points=[];" relativenormal="0.25" parent="DeJTB9jmPwMNKGj4REmm-23">
          <mxPoint x="16" y="-10" as="offset" />
        </mxCell>
        <mxCell id="DeJTB9jmPwMNKGj4REmm-25" value="1" style="edgeLabel;html=1;align=center;verticalAlign=middle;resizable=0;points=[];" relativenormal="-0.25" parent="DeJTB9jmPwMNKGj4REmm-23">
          <mxPoint x="16" y="10" as="offset" />
        </mxCell>
      </root>
    </mxGraphModel>
  </diagram>
</mxfile>
